#!OML:ASF E:/inclinewalkrobotboard/Project1/Captureday1/Session1/subject1.ASF
:FULLY-SPECIFIED
:DEGREES
201
root 0 0 0 1.25819089154235 -3.5916714685671924 1.8997678381664498
lowerback 12.042906071222678 0.8482634322631318 -0.10767080999541057
upperback -4.40947486900479 1.065303126874128 -0.6024607500930991
thorax -11.573037161772476 0.4872424923013919 -0.8027444589995703
lowerneck -5.961946886121836 1.728288263913204 4.6999113110439295
upperneck 18.39372847254771 3.2871150560863436 -8.46864379445362
head 6.731555989439959 1.212744709272414 -3.2529046535492956
rclavicle -3.765700566624731E-16 -2.1118516176257558E-15
rhumerus 20.789829069916472 14.833598824640704 -47.29488999162136
rradius 72.87517601735813
rwrist 27.418017741609894
rhand -34.558056372448085 -57.651811557045036
rfingers 7.12502000000002
rthumb -7.751579697967658 -87.60808875806597
lclavicle -2.200947151968844E-15 4.1760674531863886E-16
lhumerus 21.889849194338055 -13.057968320469287 44.45107968500555
lradius 70.7383900245649
lwrist -22.502722710361112
lhand -45.095780851790806 -70.84173694278113
lfingers 7.125020000000016
lthumb -17.85740683754428 -41.89855927808726
rfemur -25.616606092386355 -2.3710530387504454 16.87654324974849
rtibia 54.5214627624228
rfoot -31.336984679028884 -17.853730699044583
rtoes -19.02984126934852
lfemur -27.991116754401297 2.8336569953625945 -18.344095104054794
ltibia 54.78975752422516
lfoot -33.2176013285515 -3.533268946979884
ltoes -20.65090506382188
202
root 0 0 0 1.2582382156457057 -3.5918456513090167 1.8996524451221424
lowerback 12.042867302847233 0.8482883628722636 -0.10761906368912089
upperback -4.409500034538051 1.065342628072774 -0.602438543060528
thorax -11.573039698876613 0.4872615937254676 -0.8027596377032193
lowerneck -5.96189259491877 1.7283171083936628 4.69991259444381
upperneck 18.393740257949844 3.2871561272846694 -8.468676510189098
head 6.731548379764154 1.2127588981050166 -3.252910478412243
rclavicle -3.766219018416604E-16 -2.1120942759311765E-15
rhumerus 20.78973830960063 14.833349794738508 -47.294651626375504
rradius 72.87520899538066
rwrist 27.41823311400718
rhand -34.55811629179555 -57.65194503314624
rfingers 7.12502000000002
rthumb -7.751616571202167 -87.60827657798518
lclavicle -2.202558856037824E-15 4.1930928027160277E-16
lhumerus 21.8901360080254 -13.058182922173946 44.450900078234994
lradius 70.73869235058328
lwrist -22.502772317013743
lhand -45.09590415607859 -70.84223191508067
lfingers 7.125020000000016
lthumb -17.857509730047003 -41.8991616871824
rfemur -25.615360972067357 -2.3710554063708438 16.876874338732065
rtibia 54.52064125363518
rfoot -31.338431331335773 -17.852943172034628
rtoes -19.033944258052355
lfemur -27.989232423427502 2.832111951210257 -18.3420487481363
ltibia 54.78512192053933
lfoot -33.21835376923617 -3.532426918006029
ltoes -20.657318324788378
203
root 0 0 0 1.2581828475980696 -3.5918130799800956 1.8996095465197853
lowerback 12.042793627989026 0.8483005853618055 -0.1076073745195022
upperback -4.409497638627405 1.065358362368704 -0.6024244282695105
thorax -11.572996497820196 0.4872695251761021 -0.8027516446574758
lowerneck -5.961835770425002 1.7283517360203706 4.69997349572362
upperneck 18.39380168932723 3.287208472182388 -8.468764219023592
head 6.731557171762371 1.2127783885179992 -3.252940719981555
rclavicle -3.7779445179411485E-16 -2.1124784981800307E-15
rhumerus 20.789202123441022 14.832603272054834 -47.29413634289578
rradius 72.87480645801712
rwrist 27.41879288391958
rhand -34.55815249657492 -57.65215519912197
rfingers 7.12502000000002
rthumb -7.751659734365761 -87.60841743422344
lclavicle -2.2030933302193702E-15 4.191211303966348E-16
lhumerus 21.89004653967448 -13.057905822805004 44.450773650754925
lradius 70.73856537079655
lwrist -22.502934937745984
lhand -45.09592648798937 -70.84257972117462
lfingers 7.125020000000016
lthumb -17.857534320885705 -41.89953655061291
rfemur -25.61384241486674 -2.371274678314226 16.876725978246274
rtibia 54.52160263322388
rfoot -31.337289608993597 -17.851630624674478
rtoes -19.036090245486196
lfemur -27.98740294216971 2.831985597503359 -18.34219388491798
ltibia 54.78548655954616
lfoot -33.216629938748575 -3.534202412097388
ltoes -20.65907881539071
204
root 0 0 0 1.2581403119623396 -3.5917744380958183 1.8996064988443786
lowerback 12.042771441574388 0.8483036839702758 -0.10761020352388628
upperback -4.409497000128642 1.0653613287557253 -0.60242291648756
thorax -11.57298450078886 0.48727087528477026 -0.8027488706936765
lowerneck -5.961814509052856 1.7283632540505216 4.700004017253527
upperneck 18.393821122851953 3.2872247890044015 -8.468802296047414
head 6.731559155404887 1.2127843220150796 -3.2529559792597222
rclavicle -3.7798481551914266E-16 -2.112702595162535E-15
rhumerus 20.78884434885898 14.832072076908089 -47.29376043379057
rradius 72.87453203220721
rwrist 27.419201059713693
rhand -34.55816310921256 -57.65226623190476
rfingers 7.12502000000002
rthumb -7.751674073023523 -87.60851288856672
lclavicle -2.2031951324120322E-15 4.1895194741395557E-16
lhumerus 21.889979951247867 -13.057646305968701 44.45064894734842
lradius 70.7384356948665
lwrist -22.503115317548506
lhand -45.0959089786585 -70.84281753910547
lfingers 7.125020000000016
lthumb -17.857518522752432 -41.89978823813837
rfemur -25.6132302166032 -2.371411599517794 16.876627850440368
rtibia 54.522235238117
rfoot -31.336421552988337 -17.851151654442997
rtoes -19.036416436713186
lfemur -27.986783766128276 2.832132148104518 -18.342572882277484
ltibia 54.78648008535638
lfoot -33.21585012100996 -3.535186351753593
ltoes -20.659136699167924
